<svg width="52" height="52" viewBox="0 0 52 52" fill="none" xmlns="http://www.w3.org/2000/svg">
<g opacity="0.7">
<path d="M26 8.66667C28.2985 8.66667 30.5029 9.57976 32.1283 11.2051C33.7536 12.8304 34.6667 15.0348 34.6667 17.3333C34.6667 19.6319 33.7536 21.8363 32.1283 23.4616C30.5029 25.0869 28.2985 26 26 26C23.7014 26 21.497 25.0869 19.8717 23.4616C18.2464 21.8363 17.3333 19.6319 17.3333 17.3333C17.3333 15.0348 18.2464 12.8304 19.8717 11.2051C21.497 9.57976 23.7014 8.66667 26 8.66667ZM26 30.3333C35.5767 30.3333 43.3333 34.2117 43.3333 39V43.3333H8.66666V39C8.66666 34.2117 16.4233 30.3333 26 30.3333Z" fill="black"/>
</g>
</svg>
