<svg width="131" height="57" viewBox="0 0 131 57" fill="none" xmlns="http://www.w3.org/2000/svg">
<g clip-path="url(#clip0_10_185)">
<path fill-rule="evenodd" clip-rule="evenodd" d="M27.6863 5.09891H60.6477C61.1494 3.9423 61.7863 2.85239 62.5572 1.84251C63.0678 1.1741 63.6307 0.558746 64.2439 -0.000289917H27.6866C26.9763 -0.000289917 26.373 0.247808 25.8758 0.743707C25.3785 1.23931 25.1301 1.84133 25.1301 2.54946C25.1301 3.25759 25.3785 3.85931 25.8758 4.35521C26.373 4.85111 26.9763 5.09861 27.6866 5.09861L27.6863 5.09891Z" fill="#EE353A"/>
<path fill-rule="evenodd" clip-rule="evenodd" d="M59.496 9.02936H28.5381C27.3665 9.02936 26.5055 9.18883 25.9554 9.50747C25.405 9.82582 25.1301 10.4634 25.1301 11.4193V16.1996C25.1301 17.2619 25.325 18.2179 25.7159 19.0677C26.1064 19.9178 26.6036 20.6434 27.2069 21.2454C27.8105 21.8475 28.503 22.3167 29.2841 22.6528C30.0651 22.9892 30.8459 23.1573 31.6269 23.1573H64.1847C63.5211 22.5425 62.9183 21.8629 62.3798 21.1221C61.6832 20.1653 61.1045 19.1391 60.6415 18.0584H31.8932C31.396 18.0584 30.9969 17.9256 30.6952 17.66C30.3932 17.3944 30.2423 17.0847 30.2423 16.7305V14.1277H59.4969C59.359 13.2873 59.2865 12.436 59.2865 11.5785C59.2865 10.7207 59.3581 9.86969 59.496 9.02936Z" fill="#373435"/>
<path fill-rule="evenodd" clip-rule="evenodd" d="M64.2623 5.09891C63.8236 5.85566 63.4652 6.66131 63.1873 7.51557C63.0223 8.02155 62.8886 8.52575 62.7849 9.02906C62.6098 9.88213 62.5219 10.732 62.5219 11.5782C62.5219 12.4206 62.6101 13.2701 62.7861 14.1274C62.8838 14.6031 63.0087 15.0815 63.1611 15.562C63.4414 16.4474 63.8025 17.2797 64.2444 18.0581C64.4739 18.4621 64.7253 18.8513 64.9982 19.2266C65.7489 20.2587 66.6491 21.126 67.698 21.8297C67.7648 21.8744 67.8323 21.9189 67.9003 21.9619C69.0366 22.6878 70.3324 23.0859 71.7878 23.1567H96.0717C97.5984 23.1567 98.9656 22.8028 100.172 22.0944C101.379 21.3865 102.409 20.4748 103.261 19.3594C104.113 18.244 104.761 17.0047 105.204 15.6417C105.648 14.2782 105.87 12.9242 105.87 11.5785C105.87 10.2684 105.657 8.94043 105.231 7.59501C104.805 6.24959 104.193 5.02777 103.394 3.93016C102.595 2.83254 101.628 1.92047 100.492 1.19485C99.3555 0.468642 98.06 0.0705594 96.6043 -0.000579834H72.3204C70.7936 -0.000579834 69.4268 0.353634 68.2201 1.06206C68.0507 1.16136 67.8846 1.26451 67.7223 1.37211C66.7273 2.02985 65.8636 2.83817 65.1313 3.79736C64.8133 4.21382 64.5235 4.64748 64.2623 5.09862V5.09891ZM68.6193 7.38278C69.0627 6.74549 69.6666 6.20542 70.4299 5.76288C71.1931 5.32033 72.1961 5.09891 73.439 5.09891H94.9536C96.1606 5.09891 97.1547 5.32033 97.9358 5.76288C98.7168 6.20572 99.3294 6.74549 99.7728 7.38278C100.217 8.02007 100.518 8.7196 100.678 9.48079C100.838 10.2417 100.918 10.9412 100.918 11.5785C100.918 12.2158 100.838 12.9153 100.678 13.6765C100.518 14.438 100.217 15.1372 99.7728 15.7745C99.3294 16.4118 98.7165 16.9522 97.9358 17.3944C97.1547 17.837 96.1606 18.0584 94.9536 18.0584H73.439C72.1961 18.0584 71.1931 17.837 70.4299 17.3944C69.6666 16.9522 69.0627 16.4118 68.6193 15.7745C68.1753 15.1372 67.8736 14.438 67.714 13.6765C67.5541 12.9153 67.4745 12.2158 67.4745 11.5785C67.4745 10.9412 67.5541 10.2417 67.714 9.48079C67.8739 8.71931 68.1756 8.02007 68.6193 7.38278Z" fill="#EE353A"/>
<path fill-rule="evenodd" clip-rule="evenodd" d="M0 36.4197C0 36.1117 0.108182 35.8497 0.324547 35.6339C0.540614 35.4184 0.803045 35.3105 1.11184 35.3105H17.5329C17.842 35.3105 18.1045 35.4184 18.3208 35.6339C18.5369 35.8494 18.6451 36.1117 18.6451 36.4197C18.6451 36.7274 18.5369 36.9891 18.3208 37.2049C18.1048 37.4204 17.8423 37.5286 17.5329 37.5286H1.11184C0.803342 37.5286 0.540911 37.4204 0.324547 37.2049C0.108182 36.9894 0 36.7274 0 36.4197ZM2.82552 45.3821C2.48581 45.3821 2.14611 45.3092 1.8064 45.1627C1.467 45.0166 1.16593 44.8127 0.903202 44.5503C0.641069 44.2889 0.425001 43.9729 0.255001 43.6033C0.0852975 43.2337 0 42.8181 0 42.356V40.2772C0 39.8611 0.119773 39.5842 0.359319 39.4455C0.598568 39.3068 0.972748 39.2374 1.48245 39.2374H17.0238C17.3323 39.2374 17.5948 39.3453 17.8111 39.5608C18.0272 39.7763 18.1357 40.038 18.1357 40.3463C18.1357 40.6546 18.0272 40.9157 17.8111 41.1318C17.5951 41.3473 17.3323 41.4549 17.0238 41.4549H2.22338V42.5872C2.22338 42.7407 2.28877 42.8756 2.42043 42.9909C2.55149 43.1068 2.72566 43.1643 2.94143 43.1643H17.5326C17.8417 43.1643 18.1042 43.2719 18.3205 43.4877C18.5366 43.7032 18.6448 43.9652 18.6448 44.2732C18.6448 44.5812 18.5366 44.8432 18.3205 45.0587C18.1045 45.2739 17.842 45.3818 17.5326 45.3818H2.82552V45.3821ZM35.5756 35.7267C35.8071 35.4493 36.093 35.3105 36.4327 35.3105C36.7415 35.3105 37.0037 35.4184 37.2203 35.6339C37.4364 35.8494 37.5446 36.1117 37.5446 36.4197C37.5446 36.6969 37.4673 36.9201 37.3127 37.0896L37.2899 37.1127L31.6846 44.6431C31.4067 44.997 31.0554 45.286 30.6307 45.5092C30.2063 45.7324 29.7468 45.8442 29.2529 45.8442C28.7895 45.8442 28.3532 45.744 27.944 45.5439C27.535 45.3438 27.1918 45.0664 26.9136 44.7122L21.2854 37.2046C21.1924 37.097 21.1157 36.9776 21.0536 36.8468C20.9918 36.7158 20.9609 36.5733 20.9609 36.4194C20.9609 36.1114 21.0691 35.8494 21.2854 35.6336C21.5015 35.4181 21.7639 35.3102 22.0724 35.3102C22.4433 35.3102 22.7367 35.4567 22.953 35.7492L28.3497 42.9331C28.4579 43.0561 28.5928 43.191 28.7551 43.3371C28.9167 43.4835 29.0829 43.5571 29.2529 43.5571C29.4229 43.5571 29.5887 43.4838 29.7507 43.3371C29.9127 43.191 30.0402 43.0561 30.1329 42.9331L35.5759 35.7264L35.5756 35.7267ZM53.3864 43.1643C53.9116 43.1643 54.3437 43.068 54.6834 42.8756C55.0231 42.6829 55.2894 42.4482 55.4826 42.171C55.6755 41.8939 55.8065 41.5895 55.8764 41.2584C55.9459 40.9276 55.9807 40.6232 55.9807 40.346C55.9807 40.0689 55.9462 39.7644 55.8764 39.4336C55.8068 39.1023 55.6758 38.7978 55.4826 38.521C55.2894 38.2435 55.0231 38.0088 54.6834 37.8164C54.3437 37.6237 53.9116 37.5277 53.3864 37.5277H44.0293C43.4889 37.5277 43.0526 37.6237 42.7204 37.8164C42.3884 38.0088 42.126 38.2435 41.9331 38.521C41.7399 38.7978 41.6085 39.1023 41.5393 39.4336C41.4697 39.7644 41.435 40.0689 41.435 40.346C41.435 40.6232 41.4697 40.9276 41.5393 41.2584C41.6088 41.5895 41.7402 41.8939 41.9331 42.171C42.126 42.4482 42.3887 42.6829 42.7204 42.8756C43.0526 43.068 43.4886 43.1643 44.0293 43.1643H53.3864ZM58.1345 40.3463C58.1345 40.9314 58.0383 41.5204 57.8451 42.1135C57.6519 42.7063 57.3701 43.2452 56.9998 43.7305C56.6289 44.2157 56.1813 44.612 55.6562 44.92C55.1313 45.2279 54.5366 45.3818 53.8726 45.3818H43.3109C42.6782 45.3509 42.1144 45.1778 41.6201 44.8622C41.1262 44.5465 40.7053 44.1502 40.3576 43.6727C40.0102 43.1951 39.7442 42.664 39.5584 42.0788C39.3733 41.4937 39.2805 40.916 39.2805 40.3463C39.2805 39.7612 39.3768 39.1719 39.5703 38.5791C39.7632 37.9863 40.0446 37.4471 40.4156 36.9622C40.7865 36.4769 41.2341 36.0806 41.7592 35.7726C42.2838 35.4644 42.8782 35.3102 43.5424 35.3102H54.1039C54.7369 35.3411 55.3007 35.5145 55.7947 35.8302C56.2889 36.1458 56.7095 36.5421 57.0572 37.0197C57.4046 37.4969 57.6712 38.0283 57.8561 38.6135C58.0418 39.1986 58.1343 39.776 58.1343 40.346L58.1345 40.3463ZM84.9789 43.1643C85.5037 43.1643 85.9359 43.068 86.2759 42.8756C86.6156 42.6829 86.8819 42.4482 87.0748 42.171C87.2677 41.8939 87.399 41.5895 87.4686 41.2584C87.5378 40.9276 87.5723 40.6232 87.5723 40.346C87.5723 40.0689 87.5378 39.7644 87.4686 39.4336C87.399 39.1023 87.2674 38.7978 87.0748 38.521C86.8819 38.2435 86.6156 38.0088 86.2759 37.8164C85.9359 37.6237 85.5037 37.5277 84.9789 37.5277H75.6214C75.0814 37.5277 74.6448 37.6237 74.3125 37.8164C73.9806 38.0088 73.7181 38.2435 73.5252 38.521C73.3321 38.7978 73.201 39.1023 73.1314 39.4336C73.0616 39.7644 73.0271 40.0689 73.0271 40.346C73.0271 40.6232 73.0616 40.9276 73.1314 41.2584C73.201 41.5895 73.3318 41.8939 73.5252 42.171C73.7181 42.4482 73.9809 42.6829 74.3125 42.8756C74.6445 43.068 75.0811 43.1643 75.6214 43.1643H84.9789ZM89.7264 40.3463C89.7264 40.9314 89.6304 41.5204 89.4372 42.1135C89.2441 42.7063 88.9623 43.2452 88.592 43.7305C88.2211 44.2157 87.7735 44.612 87.2486 44.92C86.7235 45.2279 86.1291 45.3818 85.4651 45.3818H74.9034C74.2703 45.3509 73.7068 45.1778 73.2129 44.8622C72.7183 44.5465 72.2978 44.1502 71.9504 43.6727C71.6029 43.1951 71.3366 42.664 71.1515 42.0788C70.9657 41.4937 70.8733 40.916 70.8733 40.3463C70.8733 39.7612 70.9702 39.1719 71.1631 38.5791C71.3562 37.9863 71.638 37.4471 72.0083 36.9622C72.3792 36.4769 72.8271 36.0806 73.352 35.7726C73.8768 35.4644 74.4715 35.3102 75.1355 35.3102H85.6972C86.33 35.3411 86.8938 35.5145 87.388 35.8302C87.882 36.1458 88.3028 36.5421 88.6499 37.0197C88.9977 37.4969 89.264 38.0283 89.4491 38.6135C89.6346 39.1986 89.7267 39.776 89.7267 40.346L89.7264 40.3463ZM107.816 36.4194C107.816 36.1114 107.924 35.8494 108.14 35.6336C108.356 35.4181 108.618 35.3102 108.928 35.3102C109.236 35.3102 109.498 35.4181 109.715 35.6336C109.931 35.8491 110.039 36.1114 110.039 36.4194V43.1415C110.039 43.7728 109.827 44.304 109.402 44.7353C108.978 45.1663 108.449 45.3818 107.816 45.3818C107.599 45.3818 107.387 45.3509 107.179 45.2896C106.97 45.2276 106.781 45.1429 106.611 45.035L96.0031 38.5675C95.7097 38.3983 95.4666 38.2631 95.2734 38.1632C95.0805 38.063 94.9224 38.0132 94.7991 38.0132C94.5673 38.0132 94.4207 38.1594 94.3589 38.4522C94.2971 38.7448 94.2662 39.1684 94.2662 39.7226V44.2732C94.2662 44.5812 94.158 44.8432 93.942 45.0587C93.7259 45.2739 93.4632 45.3818 93.1544 45.3818C92.8456 45.3818 92.5831 45.2739 92.3671 45.0587C92.1507 44.8432 92.0428 44.5812 92.0428 44.2732V37.5511C92.0428 36.9198 92.2547 36.3886 92.68 35.9573C93.1041 35.5263 93.6332 35.3105 94.2662 35.3105C94.4826 35.3105 94.6948 35.3414 94.9034 35.403C95.1117 35.4647 95.3008 35.5494 95.4705 35.6573L106.079 42.1251C106.372 42.2943 106.615 42.4295 106.809 42.5294C107.001 42.6293 107.16 42.6794 107.283 42.6794C107.515 42.6794 107.661 42.5332 107.723 42.2404C107.785 41.9478 107.816 41.5242 107.816 40.97V36.4194ZM112.355 36.4194C112.355 36.1114 112.463 35.8494 112.679 35.6336C112.896 35.4181 113.158 35.3102 113.467 35.3102H129.888C130.197 35.3102 130.46 35.4181 130.675 35.6336C130.892 35.8491 131 36.1114 131 36.4194C131 36.7271 130.892 36.9888 130.675 37.2046C130.46 37.4201 130.197 37.5283 129.888 37.5283H113.467C113.158 37.5283 112.896 37.4201 112.679 37.2046C112.463 36.9891 112.355 36.7271 112.355 36.4194ZM115.181 45.3818C114.841 45.3818 114.501 45.3089 114.161 45.1624C113.822 45.0163 113.521 44.8124 113.258 44.55C112.996 44.2886 112.78 43.9726 112.61 43.603C112.44 43.2334 112.355 42.8178 112.355 42.3557V40.2769C112.355 39.8608 112.475 39.5839 112.714 39.4452C112.953 39.3065 113.328 39.2371 113.837 39.2371H129.379C129.687 39.2371 129.95 39.345 130.166 39.5605C130.382 39.776 130.491 40.0377 130.491 40.346C130.491 40.6543 130.382 40.9154 130.166 41.1315C129.95 41.347 129.687 41.4546 129.379 41.4546H114.579V42.5869C114.579 42.7404 114.644 42.8753 114.775 42.9906C114.907 43.1065 115.081 43.164 115.297 43.164H129.888C130.197 43.164 130.46 43.2716 130.676 43.4874C130.892 43.7029 131 43.9649 131 44.2729C131 44.5809 130.892 44.8429 130.676 45.0584C130.46 45.2736 130.197 45.3815 129.888 45.3815H115.181L115.181 45.3818Z" fill="#373435"/>
<path fill-rule="evenodd" clip-rule="evenodd" d="M28.4394 56.9843C28.0109 56.9843 27.6004 56.9113 27.2087 56.7661C26.817 56.6212 26.4544 56.3983 26.1209 56.0968L26.7085 55.4005C26.9787 55.6326 27.2506 55.8108 27.5261 55.9347C27.801 56.0589 28.1137 56.1205 28.4629 56.1205C28.7646 56.1205 29.0041 56.0574 29.1815 55.9308C29.359 55.8039 29.4478 55.6353 29.4478 55.4237V55.4076C29.4478 55.3075 29.4306 55.2191 29.3958 55.1429C29.3614 55.0662 29.298 54.9939 29.2056 54.9254C29.1129 54.856 28.9857 54.7932 28.8243 54.7351C28.6635 54.6767 28.4528 54.6189 28.1933 54.5605C27.897 54.492 27.6334 54.4144 27.4034 54.3272C27.173 54.2398 26.9802 54.1345 26.8238 54.0104C26.6681 53.8865 26.5486 53.7347 26.4669 53.5548C26.3849 53.3754 26.3435 53.1588 26.3435 52.9056V52.8899C26.3435 52.6525 26.3914 52.4346 26.4865 52.2366C26.5819 52.0386 26.713 51.87 26.8797 51.73C27.0464 51.5901 27.2465 51.4808 27.4792 51.4016C27.7119 51.3222 27.966 51.2828 28.2415 51.2828C28.649 51.2828 29.0154 51.342 29.3405 51.4606C29.666 51.5795 29.9721 51.7523 30.2574 51.979L29.7335 52.7156C29.4793 52.531 29.2282 52.3899 28.9794 52.292C28.7307 52.1945 28.4793 52.1456 28.2251 52.1456C27.9392 52.1456 27.7169 52.2088 27.5582 52.3353C27.3995 52.4622 27.3199 52.6175 27.3199 52.8031V52.8185C27.3199 52.924 27.3383 53.018 27.3754 53.1001C27.4123 53.1816 27.4801 53.2557 27.5778 53.3215C27.6759 53.3876 27.8105 53.4498 27.9829 53.5073C28.155 53.5654 28.3732 53.6268 28.6377 53.6896C28.9286 53.7637 29.1869 53.8452 29.4116 53.9351C29.6369 54.0246 29.8235 54.1346 29.9718 54.2635C30.1198 54.3927 30.2319 54.5433 30.3088 54.7152C30.3858 54.8866 30.4239 55.0857 30.4239 55.3131V55.3288C30.4239 55.5876 30.3751 55.8197 30.2773 56.0257C30.1793 56.2314 30.0428 56.4057 29.8681 56.5482C29.6936 56.6908 29.4844 56.799 29.2413 56.8731C28.9976 56.9469 28.7304 56.984 28.4394 56.984V56.9843ZM31.5755 51.3619H32.6151L34.3062 53.9831L35.9973 51.3619H37.0375V56.9048H36.0612V52.9299L34.3062 55.5428H34.2744L32.5361 52.9453V56.9045H31.5755V51.3616V51.3619ZM41.8332 54.7034L40.8724 52.4865L39.9195 54.7034H41.8332ZM40.4358 51.3225H41.3407L43.7861 56.9048H42.754L42.1905 55.5665H39.5626L38.9908 56.9048H37.991L40.4361 51.3225H40.4358ZM47.1448 54.1094C47.4941 54.1094 47.7716 54.0267 47.9782 53.8601C48.1845 53.6938 48.2876 53.4685 48.2876 53.1831V53.1674C48.2876 52.8662 48.1871 52.638 47.9859 52.4823C47.785 52.3264 47.5018 52.2488 47.1362 52.2488H45.7153V54.1091H47.1445L47.1448 54.1094ZM44.7393 51.3619H47.2162C47.5654 51.3619 47.8751 51.4111 48.1449 51.5083C48.4145 51.6064 48.6401 51.7425 48.8199 51.9162C48.9679 52.0691 49.0817 52.2461 49.1611 52.4468C49.2407 52.6474 49.2803 52.8692 49.2803 53.1122V53.1279C49.2803 53.355 49.2473 53.5595 49.1813 53.7418C49.115 53.9235 49.0238 54.0845 48.9076 54.2247C48.7908 54.3646 48.652 54.4831 48.4906 54.5807C48.3292 54.6788 48.1503 54.7538 47.9544 54.8065L49.4553 56.9048H48.3042L46.9386 54.9728H46.9225H45.7159V56.9048H44.7396V51.3619H44.7393ZM51.8448 52.2645H50.0821V51.3619H54.5916V52.2645H52.8295V56.9048H51.8448V52.2645ZM59.9508 56.9843C59.5219 56.9843 59.1118 56.9113 58.72 56.7661C58.3283 56.6212 57.9657 56.3983 57.6323 56.0968L58.2195 55.4005C58.4897 55.6326 58.7619 55.8108 59.0375 55.9347C59.3124 56.0589 59.625 56.1205 59.9742 56.1205C60.2759 56.1205 60.5154 56.0574 60.6929 55.9308C60.87 55.8039 60.9589 55.6353 60.9589 55.4237V55.4076C60.9589 55.3075 60.9416 55.2191 60.9072 55.1429C60.873 55.0662 60.8094 54.9939 60.7169 54.9254C60.6242 54.856 60.497 54.7932 60.3356 54.7351C60.1746 54.6767 59.9641 54.6189 59.7044 54.5605C59.4081 54.492 59.1447 54.4144 58.9147 54.3272C58.6844 54.2398 58.4912 54.1345 58.3355 54.0104C58.1794 53.8865 58.0599 53.7347 57.9779 53.5548C57.8959 53.3754 57.8546 53.1588 57.8546 52.9056V52.8899C57.8546 52.6525 57.9024 52.4346 57.9975 52.2366C58.0926 52.0386 58.224 51.87 58.3907 51.73C58.5569 51.5901 58.7572 51.4808 58.9899 51.4016C59.2226 51.3222 59.4767 51.2828 59.7522 51.2828C60.1597 51.2828 60.5261 51.342 60.8516 51.4606C61.177 51.5795 61.4831 51.7523 61.7688 51.979L61.2448 52.7156C60.9907 52.531 60.7392 52.3899 60.4905 52.292C60.2417 52.1945 59.9903 52.1456 59.7365 52.1456C59.4506 52.1456 59.228 52.2088 59.0695 52.3353C58.9108 52.4622 58.8309 52.6175 58.8309 52.8031V52.8185C58.8309 52.924 58.8493 53.018 58.8868 53.1001C58.9239 53.1816 58.9917 53.2557 59.0892 53.3215C59.1872 53.3876 59.3219 53.4498 59.4943 53.5073C59.666 53.5654 59.8845 53.6268 60.1493 53.6896C60.4403 53.7637 60.6985 53.8452 60.9232 53.9351C61.1485 54.0246 61.3348 54.1346 61.4831 54.2635C61.6311 54.3927 61.7435 54.5433 61.8205 54.7152C61.8974 54.8866 61.9355 55.0857 61.9355 55.3131V55.3288C61.9355 55.5876 61.8864 55.8197 61.7887 56.0257C61.6906 56.2314 61.5542 56.4057 61.3794 56.5482C61.2047 56.6908 60.9957 56.799 60.7526 56.8731C60.5086 56.9469 60.2414 56.984 59.9508 56.984V56.9843ZM65.7543 56.1048C66.0298 56.1048 66.2824 56.0532 66.5124 55.9504C66.7428 55.8475 66.9398 55.7076 67.1039 55.5307C67.2679 55.3537 67.396 55.1468 67.489 54.9091C67.5818 54.6719 67.6278 54.4185 67.6278 54.1491V54.1334C67.6278 53.8642 67.5818 53.6093 67.489 53.3695C67.396 53.1294 67.2667 52.9207 67.1 52.7438C66.9333 52.5671 66.7335 52.4257 66.5005 52.3202C66.2678 52.2147 66.0134 52.1619 65.7385 52.1619C65.463 52.1619 65.2104 52.2138 64.9803 52.3166C64.7503 52.4195 64.5527 52.5591 64.3889 52.7361C64.2248 52.9127 64.0965 53.1202 64.0037 53.3579C63.911 53.5951 63.8649 53.8482 63.8649 54.118V54.1337C63.8649 54.4028 63.911 54.6577 64.0037 54.8978C64.0962 55.1379 64.2257 55.3463 64.3928 55.5229C64.5595 55.6999 64.7595 55.8413 64.9922 55.9471C65.2252 56.0523 65.4787 56.1051 65.7543 56.1051V56.1048ZM65.7385 56.9997C65.3096 56.9997 64.9179 56.9241 64.5634 56.7741C64.2091 56.6235 63.9045 56.419 63.6503 56.1605C63.3962 55.9018 63.1983 55.5994 63.0551 55.2535C62.9121 54.9079 62.8405 54.5395 62.8405 54.1491V54.1334C62.8405 53.7427 62.9121 53.3745 63.0551 53.0292C63.198 52.683 63.3989 52.3795 63.6584 52.1183C63.9175 51.8572 64.2245 51.65 64.5791 51.4971C64.9337 51.3438 65.3254 51.2676 65.754 51.2676C66.1825 51.2676 66.5745 51.3423 66.9291 51.4929C67.2837 51.6432 67.588 51.8477 67.8424 52.1065C68.0959 52.3653 68.2948 52.6673 68.4377 53.0132C68.5807 53.3588 68.6523 53.727 68.6523 54.1177V54.1334C68.6523 54.524 68.5807 54.8925 68.4377 55.2378C68.2951 55.5837 68.0941 55.8875 67.8344 56.1484C67.5752 56.4098 67.2682 56.6167 66.9136 56.7703C66.5588 56.9229 66.1674 56.9997 65.7385 56.9997ZM69.8352 51.3616H73.971V52.2488H70.8115V53.7611H73.6141V54.6479H70.8115V56.9045H69.8349V51.3616H69.8352ZM76.4084 52.2642H74.6457V51.3616H79.1552V52.2642H77.3928V56.9045H76.4081V52.2642H76.4084ZM79.7588 51.3616H80.8151L82.1406 55.4714L83.5056 51.3459H84.3316L85.6972 55.4714L87.0234 51.3616H88.0472L86.11 56.944H85.2687L83.9033 52.961L82.5377 56.944H81.696L79.7588 51.3616ZM92.4137 54.7031L91.4532 52.4862L90.5003 54.7031H92.4137ZM91.0163 51.3222H91.9216L94.367 56.9045H93.3348L92.771 55.5662H90.1431L89.5716 56.9045H88.5712L91.0163 51.3222ZM97.7254 54.1091C98.0749 54.1091 98.3525 54.0264 98.559 53.8598C98.7653 53.6935 98.8681 53.4682 98.8681 53.1828V53.1671C98.8681 52.8659 98.7677 52.6377 98.5664 52.482C98.3658 52.3261 98.0826 52.2485 97.7167 52.2485H96.2958V54.1088H97.7251L97.7254 54.1091ZM95.3198 51.3616H97.7967C98.1459 51.3616 98.4556 51.4108 98.7254 51.508C98.995 51.6061 99.2206 51.7422 99.4004 51.9159C99.5484 52.0688 99.6625 52.2458 99.7416 52.4465C99.8212 52.6471 99.8608 52.8689 99.8608 53.1119V53.1276C99.8608 53.3547 99.8275 53.5592 99.7618 53.7415C99.6958 53.9232 99.6043 54.0842 99.4878 54.2244C99.371 54.3643 99.2322 54.4828 99.0711 54.5804C98.9097 54.6785 98.7308 54.7535 98.5349 54.8062L100.036 56.9045H98.8845L97.5188 54.9725H97.5031H96.2961V56.9045H95.3198V51.3616ZM101.06 51.3616H105.18V52.2328H102.037V53.6739H104.823V54.5448H102.037V56.0334H105.221V56.9042H101.06V51.3613L101.06 51.3616Z" fill="#797D7E"/>
<path fill-rule="evenodd" clip-rule="evenodd" d="M21.1891 53.5503H0V54.7173H21.1891V53.5503Z" fill="#797D7E"/>
<path fill-rule="evenodd" clip-rule="evenodd" d="M109.811 53.5503V54.7173H131V53.5503H109.811Z" fill="#797D7E"/>
</g>
<defs>
<clipPath id="clip0_10_185">
<rect width="131" height="57" fill="white"/>
</clipPath>
</defs>
</svg>
