<svg width="41" height="41" viewBox="0 0 41 41" fill="none" xmlns="http://www.w3.org/2000/svg">
<path d="M25.625 19.1333C23.575 19.1333 22.0375 17.425 22.0375 15.5458C22.0375 13.6667 23.7458 11.9583 25.625 11.9583C27.5042 11.9583 29.2125 13.6667 29.2125 15.5458C29.2125 17.425 27.675 19.1333 25.625 19.1333ZM25.625 5.29583C19.9875 5.29583 15.375 9.90833 15.375 15.5458C15.375 23.2333 25.625 34.5083 25.625 34.5083C25.625 34.5083 35.875 23.2333 35.875 15.5458C35.875 9.7375 31.2625 5.29583 25.625 5.29583Z" fill="black" fill-opacity="0.7"/>
<path d="M13.6667 34.1667V37.5833H24.6C23.0625 35.7042 19.8167 31.775 17.2542 27.3333H5.12501V6.83333H15.7167C16.9125 5.46666 18.45 4.27083 20.1583 3.41666H5.12501C3.24584 3.41666 1.70834 4.95416 1.70834 6.83333V27.3333C1.70834 29.2125 3.24584 30.75 5.12501 30.75H17.0833V34.1667H13.6667Z" fill="black" fill-opacity="0.7"/>
<path d="M8.54166 10.25V18.7917H13.325C12.9833 17.425 12.8125 16.2292 12.8125 15.0333C12.8125 13.325 13.1542 11.7875 13.6667 10.25H8.54166Z" fill="black" fill-opacity="0.7"/>
<path d="M8.54166 23.9167H15.375C14.8625 22.7208 14.35 21.6958 13.8375 20.5H8.54166V23.9167Z" fill="black" fill-opacity="0.7"/>
<path d="M35.875 3.41666H31.0917C32.8 4.27083 34.3375 5.46666 35.5333 6.83333H35.875V7.34583C37.4125 9.56666 38.4375 12.1292 38.4375 15.0333C38.4375 17.7667 37.4125 20.8417 35.875 23.9167V27.3333H33.9958C33.3125 28.5292 32.6292 29.725 31.775 30.75H35.875C37.7542 30.75 39.2917 29.2125 39.2917 27.3333V6.83333C39.2917 4.95416 37.7542 3.41666 35.875 3.41666Z" fill="black" fill-opacity="0.7"/>
</svg>
