<svg width="36" height="36" viewBox="0 0 36 36" fill="none" xmlns="http://www.w3.org/2000/svg">
<path d="M18 0.666667C20.2985 0.666667 22.5029 1.57976 24.1283 3.20507C25.7536 4.83039 26.6667 7.03479 26.6667 9.33333C26.6667 11.6319 25.7536 13.8363 24.1283 15.4616C22.5029 17.0869 20.2985 18 18 18C15.7014 18 13.497 17.0869 11.8717 15.4616C10.2464 13.8363 9.33332 11.6319 9.33332 9.33333C9.33332 7.03479 10.2464 4.83039 11.8717 3.20507C13.497 1.57976 15.7014 0.666667 18 0.666667ZM18 22.3333C27.5767 22.3333 35.3333 26.2117 35.3333 31V35.3333H0.666656V31C0.666656 26.2117 8.42332 22.3333 18 22.3333Z" fill="black"/>
</svg>
